<?xml version="1.0"?><svg width="94" height="160" xmlns="http://www.w3.org/2000/svg">
 <title>Candle</title>
 <desc>A burning candle.</desc>
 <defs>
  <linearGradient y2="0.130726" y1="0.168593" x2="1.225981" x1="0.720995" id="linearGradient2502">
   <stop stop-color="#000000" offset="0"/>
   <stop stop-color="#f4f38c" offset="1"/>
  </linearGradient>
  <pattern height="100" width="100" y="0" x="0" patternUnits="userSpaceOnUse" id="gridpattern">
   <image height="100" width="100" y="0" x="0"/>
  </pattern>
 </defs>
 <g>
  <title>Layer 1</title>
  <g id="svg_1">
   <path id="svg_3" d="m37.553398,71.135597l-0.498997,78.544395c-0.067902,3.535004 2.4473,4.088013 7.2495,3.928009c4.802197,-0.160004 7.623199,-2.378998 7.1959,-6.429001l-0.088501,-74.261604c0.063,-3.282394 -1.6656,-5.336296 -5.9482,-5.923798c-4.2607,-0.584396 -8.851799,0.5877 -7.909702,4.141998z" fill="#007fff"/>
   <path id="svg_4" d="m45.060101,68.248802c-2.8988,-0.308304 -4.8022,0.160301 -5.450401,1.031898c1.3596,1.541603 3.877201,1.968903 6.023399,2.010101c2.146202,0.041298 3.530003,0.320396 4.302002,-0.422501c-1.359501,-1.541603 -1.9762,-2.311203 -4.875,-2.619499z" fill="#aaffff"/>
   <path id="svg_5" d="m45.1451,70.3974c-0.847401,-8.477901 -0.779499,-12.012798 3.835701,-15.586601" stroke-width="2" stroke-linecap="round" stroke="url(#linearGradient2502)" fill="none"/>
   <path opacity="0.5" id="svg_6" d="m48.001099,21.4335c3.653202,5.071199 6.005203,12.7964 9.655003,18.046c3.649799,5.249699 3.334099,12.387798 2.334999,17.9053c-0.999001,5.517601 -5.380001,10.434299 -13.551601,8.133999c-8.1716,-2.300198 -10.011997,-8.7654 -9.002701,-14.818501c1.009403,-6.0532 4.267601,-8.312397 6.111401,-11.313297c1.8437,-3.000801 4.010002,-13.496801 4.4529,-17.953501z" fill="#ffff00"/>
  </g>
 </g>
</svg>